<svg xmlns="http://www.w3.org/2000/svg" viewBox="0 0 512 512"><path d="M201.4 11h-170C20.1 11 11 20.1 11 31.4v169.9L201.4 11zM501 201.4v-170c0-11.3-9.1-20.4-20.4-20.4h-170L501 201.4zM11 310.6v170c0 11.3 9.1 20.4 20.4 20.4h170L11 310.6zM310.6 501h170c11.3 0 20.4-9.1 20.4-20.4v-170L310.6 501zM403.3 218.5c-2.2-.5-6.7-.8-13.3-.8h-9v31.9h10.1c7.3 0 12.2-.6 14.6-1.8 2.5-1.2 4.4-3 5.8-5.5 1.4-2.5 2.1-5.4 2.1-8.7 0-4.1-1-7.4-2.9-10.1-1.9-2.7-4.4-4.3-7.4-5z"/><path d="M422 261.7c-3.2 2.7-6.4 4.5-9.6 5.3-4.4 1.1-10.8 1.6-19.2 1.6H381V311h-18.5V198.7h29.7c11.3 0 18.6.6 22 1.7 5.3 1.7 9.7 5.3 13.2 11 3.5 5.6 5.3 12.9 5.3 21.9 0 6.9-1 12.7-3.1 17.4-1.9 4.6-4.5 8.3-7.6 11zm-86 35.8c-8.1 10.2-18.8 15.3-32.3 15.3-13.6 0-24.5-5.1-32.5-15.3-8.1-10.2-12.1-24.2-12.1-42.1 0-11.4 1.4-21 4.2-28.8a54 54 0 0 1 8.6-15.4c3.6-4.5 7.6-7.9 11.9-10.1 5.7-2.9 12.3-4.4 19.8-4.4 13.5 0 24.3 5.1 32.5 15.4C344 222.5 348 236.7 348 255c0 18.1-4 32.3-12 42.5zM243.6 311h-18.5v-49.1h-36.3V311h-18.5V198.7h18.5v44.2h36.3v-44.2h18.5V311zm-93.4-14.6c-2.9 5.6-7.1 9.8-12.4 12.5-5.4 2.7-12 4.1-20 4.1-11.6 0-20.5-3.3-26.7-9.8-6.2-6.5-9.9-16.1-11.1-28.7l18-2.1c1.1 7.4 3.3 12.8 6.6 16.3s7.8 5.2 13.4 5.2c6 0 10.5-1.5 13.5-4.6 3-3.1 4.5-6.7 4.5-10.8 0-2.6-.6-4.9-1.9-6.8-1.3-1.9-3.5-3.5-6.7-4.9-2.2-.9-7.1-2.5-14.8-4.9-9.9-3-16.9-6.7-20.9-11.1-5.6-6.2-8.4-13.7-8.4-22.6 0-5.7 1.3-11 4-16s6.5-8.8 11.5-11.4c5-2.6 11-3.9 18.1-3.9 11.5 0 20.2 3.1 26 9.3 5.8 6.2 8.9 14.4 9.2 24.7l-18.5 1c-.8-5.8-2.5-9.9-5.1-12.4-2.6-2.5-6.5-3.8-11.7-3.8-5.4 0-9.6 1.4-12.6 4.1-2 1.7-2.9 4.1-2.9 7 0 2.6.9 4.9 2.8 6.8 2.3 2.4 8 4.9 17 7.5 9 2.6 15.7 5.3 20 8.1 4.3 2.8 7.7 6.6 10.1 11.4 2.4 4.8 3.7 10.8 3.7 17.9-.3 6.2-1.8 12.2-4.7 17.9zM256 11.2 11.2 256 256 500.8 500.8 256 256 11.2z"/><path d="M303.6 216.2c-7.6 0-13.8 3.2-18.5 9.6-4.7 6.4-7 16.1-7 29 0 12.7 2.4 22.3 7.2 28.9 4.8 6.6 10.9 9.8 18.3 9.8s13.4-3.2 18.2-9.8c4.7-6.5 7.1-16.3 7.1-29.3 0-12.9-2.3-22.4-6.9-28.8-4.6-6.2-10.8-9.4-18.4-9.4z"/></svg>